<?xml version="1.0" encoding="UTF-8"?>
<!-- Generated by Pixelmator Pro 3.7 -->
<svg width="160" height="264" viewBox="0 0 160 264" xmlns="http://www.w3.org/2000/svg">
    <g id="Group">
        <path id="Path" fill="#ffffff" fill-opacity="0.85" stroke="none" d="M 34 -0.875 L 126.625 -0.875 C 147 -0.875 160.625 12.125 160.625 31.625 L 160.625 231.25 C 160.625 250.75 147 263.75 126.625 263.75 L 34 263.75 C 13.625 263.75 0 250.75 0 231.25 L -0 31.625 C -0 12.125 13.625 -0.875 34 -0.875 Z M 36.625 19.25 C 26 19.25 20.125 24.875 20.125 34.875 L 20.125 228 C 20.125 238 26 243.625 36.625 243.625 L 124.125 243.625 C 134.625 243.625 140.5 238 140.5 228 L 140.5 34.875 C 140.5 24.875 134.625 19.25 124.125 19.25 Z M 53.875 28.375 L 107 28.375 C 110.375 28.375 112.75 30.75 112.75 34.25 C 112.75 37.75 110.375 40 107 40 L 53.875 40 C 50.5 40 48 37.75 48 34.25 C 48 30.75 50.5 28.375 53.875 28.375 Z M 65.25 217.125 L 95.5 217.125 C 100.375 217.125 104.25 221 104.25 226 C 104.25 230.875 100.375 234.75 95.5 234.75 L 65.25 234.75 C 60.25 234.75 56.375 230.875 56.375 226 C 56.375 221 60.25 217.125 65.25 217.125 Z"/>
    </g>
</svg>
