<?xml version="1.0" encoding="UTF-8"?>
<!--Generator: Apple Native CoreSVG 326-->
<!DOCTYPE svg
PUBLIC "-//W3C//DTD SVG 1.1//EN"
       "http://www.w3.org/Graphics/SVG/1.1/DTD/svg11.dtd">
<svg version="1.1" xmlns="http://www.w3.org/2000/svg" xmlns:xlink="http://www.w3.org/1999/xlink" viewBox="0 0 314.125 235.625">
 <g>
  <path d="M250.75 233.75L288 233.75C305.25 233.75 314.125 225.5 314.125 209.125L314.125 24.75C314.125 8.375 305.25 0 288 0L250.75 0C233.75 0 224.875 8.375 224.875 24.75L224.875 209.125C224.875 225.5 233.75 233.75 250.75 233.75Z" fill="white" fill-opacity="0.85"/>
  <path d="M138.375 233.75L175.625 233.75C192.875 233.75 201.625 225.5 201.625 209.125L201.625 61.25C201.625 44.875 192.875 36.5 175.625 36.5L138.375 36.5C121.25 36.5 112.375 44.875 112.375 61.25L112.375 209.125C112.375 225.5 121.25 233.75 138.375 233.75Z" fill="white" fill-opacity="0.85"/>
  <path d="M26 233.75L63.125 233.75C80.375 233.75 89.25 225.5 89.25 209.125L89.25 97.625C89.25 81.25 80.375 72.875 63.125 72.875L26 72.875C8.875 72.875 0 81.25 0 97.625L0 209.125C0 225.5 8.875 233.75 26 233.75Z" fill="white" fill-opacity="0.85"/>
 </g>
</svg>
