<?xml version="1.0" encoding="UTF-8"?>
<!-- Generated by Pixelmator Pro 3.7 -->
<svg width="189" height="311" viewBox="0 0 189 311" xmlns="http://www.w3.org/2000/svg">
    <g id="Group">
        <path id="Path" fill="#ffffff" fill-opacity="0.85" stroke="none" d="M 111.625 -1 L 79.125 -1 C 64.25 -1 56.5 6.875 56.5 21.75 L 56.5 75.875 C 56.5 91.125 48.375 99.375 35.25 109.125 C 13 125.5 1.375 150.875 1.375 177.375 L 1.375 212.875 C 1.375 227.75 9 235.5 23.875 235.5 L 36.25 235.5 L 36.25 293.25 C 36.25 303 44 310.75 53.5 310.75 C 63.375 310.75 71.125 303 71.125 293.25 L 71.125 235.5 L 119.625 235.5 L 119.625 293.25 C 119.625 303 127.5 310.75 137 310.75 C 146.625 310.75 154.5 303 154.5 293.25 L 154.5 235.5 L 167.125 235.5 C 182 235.5 189.375 227.75 189.375 212.875 L 189.375 177.375 C 189.375 150.875 178 125.5 155.5 109.125 C 142.25 99.375 134.25 91.125 134.25 75.875 L 134.25 21.75 C 134.25 6.875 126.875 -1 111.625 -1 Z"/>
    </g>
</svg>
